<?xml version="1.0" standalone="no"?>
<svg viewBox="0 0 200 200" xmlns="http://www.w3.org/2000/svg">
  <path fill="#A7F0BA" d="M47.1,-75.7C59.2,-65.6,65.8,-49.3,73,-33.4C80.2,-17.4,88.1,-1.8,87.8,13.9C87.6,29.6,79.1,45.4,66.7,55.3C54.3,65.1,37.8,69,21.6,74C5.3,79,-10.7,85.1,-25.4,82.6C-40,80,-53.3,68.8,-64.9,55.9C-76.6,43,-86.7,28.5,-90.5,12.1C-94.4,-4.4,-92,-22.6,-84.6,-38.5C-77.2,-54.4,-64.8,-68,-49.9,-76.8C-34.9,-85.5,-17.5,-89.5,0,-89.5C17.5,-89.6,35.1,-85.7,47.1,-75.7Z" transform="translate(100 100)" />
</svg>
